<svg id="mb-logo" xmlns="http://www.w3.org/2000/svg" xmlns:xlink="http://www.w3.org/1999/xlink" width="161.98" height="22.742" viewBox="0 0 161.98 22.742">
  <defs>
    <clipPath id="clip-path">
      <path id="Path_55" data-name="Path 55" d="M99.339,37.029a5.758,5.758,0,0,0-.646-1.467,7.337,7.337,0,0,0-1-1.288,5.459,5.459,0,0,0-1.271-.971,6.163,6.163,0,0,0,1.629-2.134,5.952,5.952,0,0,0,.566-2.539,6.268,6.268,0,0,0-.408-2.213,6.01,6.01,0,0,0-1.224-1.96,5.414,5.414,0,0,0-1.051-.91,8.055,8.055,0,0,0-1.318-.7,8.786,8.786,0,0,0-1.441-.47,6.313,6.313,0,0,0-1.429-.173H82V44.918H92.82a6.656,6.656,0,0,0,2.641-.517,7.337,7.337,0,0,0,2.151-1.379A6.2,6.2,0,0,0,99.054,41a5.984,5.984,0,0,0,.517-2.477,5.517,5.517,0,0,0-.217-1.491M88.788,27.072h1.35a2.277,2.277,0,0,1,1.567.587,1.849,1.849,0,0,1,.657,1.432,1.9,1.9,0,0,1-.678,1.453,2.236,2.236,0,0,1-1.567.608h-1.35ZM92.081,39.4a2.486,2.486,0,0,1-1.761.669H88.594V35.509H90.32a2.477,2.477,0,0,1,1.761.672,2.142,2.142,0,0,1,0,3.208" transform="translate(-82 -22.2)" fill="none"/>
    </clipPath>
  </defs>
  <path id="Path_39" data-name="Path 39" d="M99.339,37.029a5.758,5.758,0,0,0-.646-1.467,7.337,7.337,0,0,0-1-1.288,5.459,5.459,0,0,0-1.271-.971,6.163,6.163,0,0,0,1.629-2.134,5.952,5.952,0,0,0,.566-2.539,6.268,6.268,0,0,0-.408-2.213,6.01,6.01,0,0,0-1.224-1.96,5.414,5.414,0,0,0-1.051-.91,8.055,8.055,0,0,0-1.318-.7,8.786,8.786,0,0,0-1.441-.47,6.313,6.313,0,0,0-1.429-.173H82V44.918H92.82a6.656,6.656,0,0,0,2.641-.517,7.337,7.337,0,0,0,2.151-1.379A6.2,6.2,0,0,0,99.054,41a5.984,5.984,0,0,0,.517-2.477,5.517,5.517,0,0,0-.217-1.491M88.788,27.072h1.35a2.277,2.277,0,0,1,1.567.587,1.849,1.849,0,0,1,.657,1.432,1.9,1.9,0,0,1-.678,1.453,2.236,2.236,0,0,1-1.567.608h-1.35ZM92.081,39.4a2.486,2.486,0,0,1-1.761.669H88.594V35.509H90.32a2.477,2.477,0,0,1,1.761.672,2.142,2.142,0,0,1,0,3.208" transform="translate(-57.935 -22.177)" fill="#fff"/>
  <path id="Path_40" data-name="Path 40" d="M21.453,22.12V44.859H14.868V33.1l-4.173,5.553L6.586,33.1V44.859H0V22.12H6.586l4.109,5.52,4.173-5.52Z" transform="translate(0 -22.12)" fill="#fff"/>
  <g id="Group_136" data-name="Group 136" transform="translate(50.697 5.981)">
    <path id="Path_41" data-name="Path 41" d="M5.408,3.666,2.771,0H0V10.212H3.124V4.984L5.165,7.928h.495L7.693,4.984v5.228h3.132V0H8.054Z" transform="translate(0 0.001)" fill="#fff"/>
    <path id="Path_42" data-name="Path 42" d="M21.95,5.746c0,1.256-.369,1.774-1.311,1.774s-1.279-.5-1.279-1.774V0H16.22V5.934c.008,2.653,1.4,4.27,4.419,4.27s4.443-1.821,4.443-4.278V0h-3.14Z" transform="translate(-3.488 0.001)" fill="#fff"/>
    <path id="Path_43" data-name="Path 43" d="M34.277,4.152,33,3.666a.644.644,0,0,1-.534-.644c0-.392.314-.644.911-.644a5.134,5.134,0,0,1,2.355.706l.8-2.426A8.109,8.109,0,0,0,33.218,0C30.776,0,29.34,1.389,29.34,3.218a2.636,2.636,0,0,0,2.143,2.7l1.279.44c.518.173.691.392.691.683,0,.487-.392.73-.989.73a4.513,4.513,0,0,1-2.284-.785l-.7,2.512a8.438,8.438,0,0,0,3.375.73c2.41,0,3.815-1.405,3.815-3.312C36.671,5.6,35.989,4.764,34.277,4.152Z" transform="translate(-6.31 0.001)" fill="#fff"/>
    <path id="Path_44" data-name="Path 44" d="M55.552,0H52.42V10.212h7.214v-2.6H55.552Z" transform="translate(-11.273 0.001)" fill="#fff"/>
    <path id="Path_45" data-name="Path 45" d="M63.37,10.212h7.567v-2.6H66.353V6.264h3.611V3.831H66.353V2.6h4.584V0H63.37Z" transform="translate(-13.628 0.001)" fill="#fff"/>
    <path id="Path_46" data-name="Path 46" d="M81.91,4.882a2.269,2.269,0,0,0,1.083-2.088C82.993.887,81.816,0,79.673,0H75.12V10.2h5.165c2.19,0,3.422-1.068,3.422-2.826a2.355,2.355,0,0,0-1.8-2.5Zm-3.658-2.63h.832a.714.714,0,0,1,.785.785.7.7,0,0,1-.785.785H78.3Zm1.405,5.707H78.252V6.185H79.61c.612,0,.848.377.848.9a.785.785,0,0,1-.8.871Z" transform="translate(-16.154 0.001)" fill="#fff"/>
    <path id="Path_47" data-name="Path 47" d="M90.484,0H87.36V10.212h7.206v-2.6H90.484Z" transform="translate(-18.787 0.001)" fill="#fff"/>
    <path id="Path_48" data-name="Path 48" d="M101.11,0,97.86,10.2h3.093l.424-1.68h3.061l.44,1.68h3.14L104.736,0Zm1.036,6.335.785-3.375.785,3.375Z" transform="translate(-21.045 0.001)" fill="#fff"/>
    <path id="Path_49" data-name="Path 49" d="M111.88,2.6h3.564L111.88,8.156v2.057h7.536v-2.6H115.9l3.517-5.557V0H111.88Z" transform="translate(-24.06 0.001)" fill="#fff"/>
    <path id="Path_50" data-name="Path 50" d="M130.637,2.6V0H123.07V10.212h7.567v-2.6h-4.576V6.264h3.611V3.831h-3.611V2.6Z" transform="translate(-26.466 0.001)" fill="#fff"/>
    <path id="Path_51" data-name="Path 51" d="M44.936,2.909a4.082,4.082,0,0,1,2.284,1.13L48.437,1.6A5.848,5.848,0,0,0,44.677.13c-2.653,0-4.71,1.876-4.827,5.047h0c.118,3.187,2.143,5.055,4.827,5.055A5.848,5.848,0,0,0,48.469,8.8L47.221,6.308a4.082,4.082,0,0,1-2.284,1.13c-1.162,0-1.813-.722-1.884-2.276C43.108,3.631,43.775,2.909,44.936,2.909Z" transform="translate(-8.57 -0.027)" fill="#fff"/>
    <path id="Path_52" data-name="Path 52" d="M138.976,4.045l-.5-1.028h-.361V4.045h-.5V1.47h1.013a1.044,1.044,0,0,1,.353.063.879.879,0,0,1,.259.173.7.7,0,0,1,.165.251.785.785,0,0,1,.055.3.628.628,0,0,1-.039.251.55.55,0,0,1-.1.188.542.542,0,0,1-.149.149.785.785,0,0,1-.181.094l.581,1.107Zm-.118-2.033a.385.385,0,0,0-.267-.094h-.479v.675h.479a.385.385,0,0,0,.267-.094.322.322,0,0,0,.094-.243.322.322,0,0,0-.094-.243" transform="translate(-29.593 -0.315)" fill="#fff"/>
    <path id="Path_53" data-name="Path 53" d="M138.1,4.788a2.394,2.394,0,1,1,2.355-2.355A2.355,2.355,0,0,1,138.1,4.788Zm0-4.4a2.009,2.009,0,1,0,2.009,2.009A2.009,2.009,0,0,0,138.1.385Z" transform="translate(-29.176 0.001)" fill="#fff"/>
  </g>
  <g id="Group_135" data-name="Group 135" transform="translate(24.065 0.023)" clip-path="url(#clip-path)">
    <path id="Path_54" data-name="Path 54" d="M81.98,24.865l16.341-14,9.576-.006V36.833H93.842L81.98,26.071Z" transform="translate(-81.986 -14.188)" fill="#ffcb05"/>
  </g>
</svg>
